<?xml version="1.0" encoding="UTF-8" standalone="no"?>
<!-- Created with Inkscape (http://www.inkscape.org/) -->

<svg
   xmlns:dc="http://purl.org/dc/elements/1.1/"
   xmlns:cc="http://creativecommons.org/ns#"
   xmlns:rdf="http://www.w3.org/1999/02/22-rdf-syntax-ns#"
   xmlns:svg="http://www.w3.org/2000/svg"
   xmlns="http://www.w3.org/2000/svg"
   xmlns:xlink="http://www.w3.org/1999/xlink"
   xmlns:sodipodi="http://sodipodi.sourceforge.net/DTD/sodipodi-0.dtd"
   xmlns:inkscape="http://www.inkscape.org/namespaces/inkscape"
   width="750"
   height="115"
   id="svg2"
   version="1.1"
   inkscape:version="0.48.0 r9654"
   sodipodi:docname="meridian_globe_logo.svg"
   inkscape:export-filename="C:\Users\CWilson\Desktop\Web Design\Assignments\meridiantechnology\assets\logo.png"
   inkscape:export-xdpi="89.995316"
   inkscape:export-ydpi="89.995316">
  <title
     id="title3828">Meridian Globle Logo</title>
  <defs
     id="defs4">
    <linearGradient
       inkscape:collect="always"
       id="linearGradient3820">
      <stop
         style="stop-color:#000000;stop-opacity:1;"
         offset="0"
         id="stop3822" />
      <stop
         style="stop-color:#000000;stop-opacity:0;"
         offset="1"
         id="stop3824" />
    </linearGradient>
    <linearGradient
       id="linearGradient3812">
      <stop
         style="stop-color:#8eb0c7;stop-opacity:1;"
         offset="0"
         id="stop3814" />
      <stop
         style="stop-color:#ffffff;stop-opacity:0;"
         offset="1"
         id="stop3816" />
    </linearGradient>
    <linearGradient
       id="linearGradient3800">
      <stop
         style="stop-color:#8eb0c7;stop-opacity:1;"
         offset="0"
         id="stop3802" />
      <stop
         style="stop-color:#ffffff;stop-opacity:0;"
         offset="1"
         id="stop3804" />
    </linearGradient>
    <linearGradient
       id="linearGradient3792">
      <stop
         style="stop-color:#000000;stop-opacity:1;"
         offset="0"
         id="stop3794" />
      <stop
         style="stop-color:#000000;stop-opacity:0;"
         offset="1"
         id="stop3796" />
    </linearGradient>
    <linearGradient
       inkscape:collect="always"
       xlink:href="#linearGradient3812"
       id="linearGradient3818"
       x1="1162.8572"
       y1="343.79074"
       x2="-508.73291"
       y2="333.01208"
       gradientUnits="userSpaceOnUse"
       gradientTransform="matrix(0.09398286,0,0,0.09398286,129.29632,362.0727)" />
    <linearGradient
       inkscape:collect="always"
       xlink:href="#linearGradient3820"
       id="linearGradient3826"
       x1="602.53589"
       y1="576.82928"
       x2="1162.8572"
       y2="343.79074"
       gradientUnits="userSpaceOnUse"
       gradientTransform="matrix(0.09398286,0,0,0.09398286,129.29632,362.0727)" />
    <linearGradient
       inkscape:collect="always"
       xlink:href="#linearGradient3812"
       id="linearGradient3484"
       gradientUnits="userSpaceOnUse"
       gradientTransform="matrix(0.09398286,0,0,0.09398286,129.29632,362.0727)"
       x1="1162.8572"
       y1="343.79074"
       x2="-508.73291"
       y2="333.01208" />
    <linearGradient
       inkscape:collect="always"
       xlink:href="#linearGradient3820"
       id="linearGradient3486"
       gradientUnits="userSpaceOnUse"
       gradientTransform="matrix(0.09398286,0,0,0.09398286,129.29632,362.0727)"
       x1="602.53589"
       y1="576.82928"
       x2="1162.8572"
       y2="343.79074" />
    <linearGradient
       inkscape:collect="always"
       xlink:href="#linearGradient3812"
       id="linearGradient3506"
       gradientUnits="userSpaceOnUse"
       gradientTransform="matrix(0.09398286,0,0,0.09398286,129.29632,362.0727)"
       x1="1162.8572"
       y1="343.79074"
       x2="-508.73291"
       y2="333.01208" />
    <linearGradient
       inkscape:collect="always"
       xlink:href="#linearGradient3820"
       id="linearGradient3508"
       gradientUnits="userSpaceOnUse"
       gradientTransform="matrix(0.09398286,0,0,0.09398286,129.29632,362.0727)"
       x1="602.53589"
       y1="576.82928"
       x2="1162.8572"
       y2="343.79074" />
    <linearGradient
       inkscape:collect="always"
       xlink:href="#linearGradient3812"
       id="linearGradient3525"
       gradientUnits="userSpaceOnUse"
       gradientTransform="matrix(0.081723,0,0,0.081723,193.31934,959.95833)"
       x1="1162.8572"
       y1="343.79074"
       x2="-508.73291"
       y2="333.01208" />
    <linearGradient
       inkscape:collect="always"
       xlink:href="#linearGradient3820"
       id="linearGradient3527"
       gradientUnits="userSpaceOnUse"
       gradientTransform="matrix(0.081723,0,0,0.081723,193.31934,959.95833)"
       x1="602.53589"
       y1="576.82928"
       x2="1162.8572"
       y2="343.79074" />
    <linearGradient
       inkscape:collect="always"
       xlink:href="#linearGradient3812"
       id="linearGradient3545"
       gradientUnits="userSpaceOnUse"
       gradientTransform="matrix(0.081723,0,0,0.081723,193.31934,959.95833)"
       x1="1162.8572"
       y1="343.79074"
       x2="-508.73291"
       y2="333.01208" />
    <linearGradient
       inkscape:collect="always"
       xlink:href="#linearGradient3820"
       id="linearGradient3547"
       gradientUnits="userSpaceOnUse"
       gradientTransform="matrix(0.081723,0,0,0.081723,193.31934,959.95833)"
       x1="602.53589"
       y1="576.82928"
       x2="1162.8572"
       y2="343.79074" />
  </defs>
  <sodipodi:namedview
     id="base"
     pagecolor="#ffffff"
     bordercolor="#666666"
     borderopacity="1.0"
     inkscape:pageopacity="0.0"
     inkscape:pageshadow="2"
     inkscape:zoom="2.9940969"
     inkscape:cx="294.00031"
     inkscape:cy="56.835667"
     inkscape:document-units="px"
     inkscape:current-layer="g3370"
     showgrid="true"
     inkscape:snap-global="false"
     inkscape:window-width="1366"
     inkscape:window-height="746"
     inkscape:window-x="-8"
     inkscape:window-y="-8"
     inkscape:window-maximized="1">
    <inkscape:grid
       type="xygrid"
       id="grid3757"
       empspacing="5"
       visible="true"
       enabled="true"
       snapvisiblegridlinesonly="true" />
  </sodipodi:namedview>
  <metadata
     id="metadata7">
    <rdf:RDF>
      <cc:Work
         rdf:about="">
        <dc:format>image/svg+xml</dc:format>
        <dc:type
           rdf:resource="http://purl.org/dc/dcmitype/StillImage" />
        <dc:title>Meridian Globle Logo</dc:title>
      </cc:Work>
    </rdf:RDF>
  </metadata>
  <g
     inkscape:label="Layer 1"
     inkscape:groupmode="layer"
     id="layer1"
     transform="translate(0,-937.36217)">
    <g
       id="g3278"
       transform="matrix(1,0,0,0.99450544,0,-21.872962)" />
    <g
       id="g3370"
       transform="translate(0,3.1758015)"
       style="fill:#ffffff">
      <g
         id="g3529"
         transform="translate(0.24449986,0.00249961)">
        <path
           inkscape:connector-curvature="0"
           id="path3759"
           d="m 237.31997,941.81615 c -0.3508,0.002 -0.70236,0.008 -1.05143,0.0158 -11.68497,0.29603 -22.3786,4.61876 -30.7603,11.62109 8.47581,-6.93337 19.30776,-11.09142 31.09233,-11.09142 26.51062,0 48.02967,21.06394 48.77694,47.36977 -6.04721,13.01091 -25.33457,22.53071 -48.1445,22.53071 -25.16834,0 -45.93473,-11.5977 -49.33033,-26.6811 -0.0303,0.24123 -0.0601,0.48502 -0.087,0.7273 3.0981,19.6496 24.01398,34.8396 49.41728,34.8396 22.81888,0 42.11321,-12.2481 48.15241,-28.98163 -0.54404,26.65813 -22.37574,48.12873 -49.1406,48.12873 -23.81972,0 -43.602,-17.0097 -47.91524,-39.5433 -0.05,-0.2522 -0.0964,-0.5054 -0.1423,-0.75897 -0.0115,-0.0657 -0.0204,-0.13191 -0.0316,-0.19764 -0.008,-0.0424 -0.009,-0.0842 -0.0158,-0.12648 -0.0617,-0.3548 -0.12799,-0.70941 -0.18181,-1.06725 0.14268,1.05635 0.3139,2.10434 0.52175,3.13854 0.0816,0.4058 0.16951,0.8073 0.26088,1.2095 0.0836,0.3679 0.17711,0.7342 0.26879,1.0989 0.0191,0.076 0.0358,0.1533 0.0553,0.2292 0.057,0.2191 0.11405,0.4383 0.17392,0.6562 0.0743,0.2704 0.15056,0.5378 0.22925,0.8063 0.0131,0.045 0.0263,0.09 0.0395,0.1344 0.21535,0.7272 0.44059,1.4453 0.68778,2.1582 6.63875,19.1464 24.61736,32.9957 45.89935,33.5115 0.40925,0.01 0.82158,0.016 1.23325,0.016 0.38764,-9e-4 0.76865,-0.01 1.1542,-0.016 0.85559,-0.022 1.70895,-0.062 2.55347,-0.1265 0.0421,0 0.0844,0 0.12649,-0.01 0.38002,-0.029 0.76081,-0.065 1.1384,-0.1028 18.86829,-1.9155 34.66497,-14.3426 41.42482,-31.3295 8.7e-4,0 0.006,0 0.009,-0.01 0.14758,-0.3743 0.28818,-0.7518 0.4269,-1.1305 8.7e-4,0 0.006,0 0.009,-0.01 0.13895,-0.3796 0.27324,-0.7624 0.40318,-1.1463 8.4e-4,0 -8.4e-4,-0.01 0,-0.01 1.69882,-5.0212 2.62461,-10.398 2.62461,-15.99282 0,-1.80307 -0.0981,-3.58267 -0.28459,-5.33621 0.0157,-0.0945 0.0247,-0.18984 0.0395,-0.28461 -0.0268,-0.24687 -0.0486,-0.49734 -0.079,-0.74311 -0.018,0.0815 -0.0364,0.16376 -0.0553,0.24508 -3.00865,-24.58022 -23.89234,-43.63418 -49.25917,-43.74905 -0.0769,-3.2e-4 -0.15234,0 -0.22927,0 l -0.009,0 z m -31.81173,11.63689 c -0.31657,0.26447 -0.63089,0.5264 -0.94076,0.79847 0.31154,-0.26808 0.62251,-0.53813 0.94076,-0.79847 z"
           style="fill:url(#linearGradient3545);fill-opacity:1;fill-rule:evenodd;stroke:url(#linearGradient3547);stroke-width:0.25297603;stroke-opacity:1" />
        <g
           style="fill:#ffffff"
           transform="matrix(1.0079864,0,0,0.86477432,45.337122,628.85908)"
           id="g3266">
          <g
             transform="matrix(0.92467091,0,-0.03575431,1.2842372,108.62069,-43.702062)"
             style="font-size:40px;font-style:normal;font-variant:normal;font-weight:normal;font-stretch:normal;line-height:76.99999809%;letter-spacing:-1.77999997px;fill:#ffffff;font-family:Tunga;-inkscape-font-specification:Tunga"
             id="flowRoot3225">
            <path
               d="m 231.85742,361.18298 -15.41382,0 0,-28.24218 14.80103,0 0,3.69262 -10.72388,0 0,8.35327 9.91944,0 0,3.67188 -9.91944,0 0,8.83179 11.33667,0 z"
               style="font-weight:bold;fill:#ffffff;font-family:Segoe UI Symbol;-inkscape-font-specification:Segoe UI Symbol Bold"
               id="path3250"
               inkscape:connector-curvature="0" />
            <path
               d="m 255.52176,361.18298 -4.51416,0 -4.71314,-7.88696 c -0.424,-0.71614 -0.8248,-1.31448 -1.20239,-1.79504 -0.37762,-0.48054 -0.75624,-0.8671 -1.13586,-1.15967 -0.37966,-0.29255 -0.78757,-0.50556 -1.22376,-0.63904 -0.43621,-0.13345 -0.9249,-0.20018 -1.46606,-0.2002 l -2.21314,0 0,11.68091 -4.07715,0 0,-28.24218 8.62671,0 c 1.2386,2e-5 2.39094,0.15749 3.45703,0.47241 1.06607,0.31497 1.99706,0.79877 2.79297,1.45141 0.79588,0.6527 1.4162,1.46121 1.86096,2.42554 0.44473,0.96438 0.6671,2.08336 0.66712,3.35693 -2e-5,0.99693 -0.15098,1.91449 -0.45288,2.75269 -0.30194,0.83823 -0.73448,1.59019 -1.29761,2.25586 -0.56317,0.6657 -1.23415,1.22824 -2.01294,1.68762 -0.77882,0.45941 -1.55397,0.7892 -2.32544,0.98938 l 0,-0.45776 c 0.32795,0.14568 0.67239,0.35808 1.03333,0.6372 0.3609,0.27915 0.70534,0.60996 1.03332,0.99244 0.32795,0.38249 0.63597,0.79143 0.92407,1.2268 0.28807,0.4354 0.62824,0.97088 1.02051,1.60645 z m -16.46851,-24.54956 0,9.17603 3.93677,0 c 0.75113,10e-6 1.44021,-0.11127 2.06726,-0.33386 0.62702,-0.22256 1.16962,-0.54239 1.62781,-0.95948 0.45815,-0.41705 0.81704,-0.92934 1.07666,-1.53686 0.25958,-0.60749 0.38938,-1.29576 0.3894,-2.06482 -2e-5,-1.35415 -0.43316,-2.40619 -1.29944,-3.15613 -0.8663,-0.74989 -2.14092,-1.12485 -3.82385,-1.12488 z"
               style="font-weight:bold;fill:#ffffff;font-family:Segoe UI Symbol;-inkscape-font-specification:Segoe UI Symbol Bold"
               id="path3252"
               inkscape:connector-curvature="0" />
            <path
               d="m 261.34373,332.9408 0,3.53881 c -0.1774,6.91213 -0.0861,14.14046 -0.0861,21.16455 l 0.0861,3.53882 c -1.36175,0.0983 -3.97625,0 -3.97625,0 l -0.187,-3.53882 0,-21.16455 0.0504,-3.53881 c 2.87147,0.0983 4.11281,0 4.11281,0 z"
               style="font-weight:bold;fill:#ffffff;font-family:Segoe UI Symbol;-inkscape-font-specification:Segoe UI Symbol Bold"
               id="path3254"
               inkscape:connector-curvature="0"
               sodipodi:nodetypes="cccccccccc" />
            <path
               d="m 266.1036,361.18298 0,-28.24218 8.01392,0 c 9.96336,2e-5 14.94504,4.5923 14.94507,13.77685 -3e-5,4.34409 -1.3841,7.84099 -4.15222,10.49072 -2.76817,2.64974 -6.46792,3.97461 -11.09925,3.97461 z m 4.07715,-24.54956 0,20.85694 3.66821,0 c 3.47574,0 6.17532,-0.92489 8.09876,-2.77466 1.9234,-1.84977 2.88511,-4.49055 2.88513,-7.92237 -2e-5,-6.77325 -3.59743,-10.15988 -10.79223,-10.15991 z"
               style="font-weight:bold;fill:#ffffff;font-family:Segoe UI Symbol;-inkscape-font-specification:Segoe UI Symbol Bold"
               id="path3256"
               inkscape:connector-curvature="0" />
            <path
               d="m 323.48721,361.18298 -4.2981,0 -2.91138,-7.69775 -11.02417,0 -2.73803,7.69775 -4.32251,0 10.65796,-28.24218 3.93432,0 z m -8.38501,-11.37085 -4.28711,-11.16943 c -0.15138,-0.41176 -0.28119,-0.94114 -0.38941,-1.58813 l 0.67139,0 c -0.0936,0.5648 -0.22096,0.91717 -0.38208,1.05712 l -4.27002,11.70044 z"
               style="font-weight:bold;fill:#ffffff;font-family:Segoe UI Symbol;-inkscape-font-specification:Segoe UI Symbol Bold"
               id="path3260"
               inkscape:connector-curvature="0" />
            <path
               d="m 348.44793,361.18298 -4.6228,0 -14.24683,-22.06543 c -0.3768,-0.5794 -0.65186,-1.09494 -0.82519,-1.54663 l 0.62133,0 c 0.10253,0.30357 0.1538,1.4311 0.15381,3.38257 l 0,20.22949 -4.07715,0 0,-28.24218 4.84375,0 13.86719,21.72729 c 0.60138,0.93506 0.94399,1.48682 1.02783,1.65527 l -0.62744,0 c -0.12697,-0.48583 -0.19045,-1.70287 -0.19043,-3.65112 l 0,-19.73144 4.07593,0 z"
               style="font-weight:bold;fill:#ffffff;font-family:Segoe UI Symbol;-inkscape-font-specification:Segoe UI Symbol Bold"
               id="path3262"
               inkscape:connector-curvature="0" />
            <path
               sodipodi:nodetypes="cccccccccc"
               inkscape:connector-curvature="0"
               id="path3264"
               style="font-weight:bold;fill:#ffffff;font-family:Segoe UI Symbol;-inkscape-font-specification:Segoe UI Symbol Bold"
               d="m 295.20954,332.9408 0,3.53881 c -0.1774,6.91213 -0.0861,14.14046 -0.0861,21.16455 l 0.0861,3.53882 c -1.36175,0.0983 -3.97625,0 -3.97625,0 l -0.187,-3.53882 0,-21.16455 0.0504,-3.53881 c 2.87147,0.0983 4.11281,0 4.11281,0 z" />
          </g>
          <text
             xml:space="preserve"
             style="font-size:65.63352203px;font-style:normal;font-variant:normal;font-weight:normal;font-stretch:normal;line-height:125%;letter-spacing:0px;word-spacing:0px;fill:#ffffff;fill-opacity:1;stroke:none;font-family:Segoe UI;-inkscape-font-specification:Segoe UI"
             x="289.56146"
             y="357.38159"
             id="text3235"
             sodipodi:linespacing="125%"
             transform="scale(0.85336551,1.1718308)"><tspan
               sodipodi:role="line"
               id="tspan3237"
               x="289.56146"
               y="357.38159"
               style="font-style:normal;font-variant:normal;font-weight:normal;font-stretch:normal;fill:#ffffff;font-family:Segoe UI;-inkscape-font-specification:Segoe UI">M</tspan></text>
        </g>
        <text
           sodipodi:linespacing="125%"
           id="text3245"
           y="1108.1028"
           x="276.68961"
           style="font-size:40.33575821px;font-style:normal;font-variant:normal;font-weight:normal;font-stretch:normal;line-height:125%;letter-spacing:-1.2403245px;word-spacing:0px;fill:#ffffff;fill-opacity:1;stroke:none;font-family:Segoe UI;-inkscape-font-specification:Segoe UI"
           xml:space="preserve"
           transform="scale(1.0796324,0.92624115)"><tspan
             style="font-style:normal;font-variant:normal;font-weight:normal;font-stretch:normal;letter-spacing:-1.2403245px;fill:#ffffff;font-family:Segoe UI;-inkscape-font-specification:Segoe UI"
             y="1108.1028"
             x="276.68961"
             id="tspan3247"
             sodipodi:role="line">TECHNOLOGY</tspan></text>
      </g>
    </g>
  </g>
</svg>
