<?xml version="1.0" encoding="UTF-8" standalone="no"?>
<!-- Created with Inkscape (http://www.inkscape.org/) -->

<svg
   xmlns:dc="http://purl.org/dc/elements/1.1/"
   xmlns:cc="http://creativecommons.org/ns#"
   xmlns:rdf="http://www.w3.org/1999/02/22-rdf-syntax-ns#"
   xmlns:svg="http://www.w3.org/2000/svg"
   xmlns="http://www.w3.org/2000/svg"
   xmlns:sodipodi="http://sodipodi.sourceforge.net/DTD/sodipodi-0.dtd"
   xmlns:inkscape="http://www.inkscape.org/namespaces/inkscape"
   width="508"
   height="150"
   id="svg2"
   version="1.1"
   inkscape:version="0.48.0 r9654"
   sodipodi:docname="logo_infinity_font_banner.svg"
   inkscape:export-filename="C:\Users\CWilson\Desktop\portfolio\websites\assets\logos\logo_infinity_font_eye_01.png"
   inkscape:export-xdpi="90"
   inkscape:export-ydpi="90">
  <title
     id="title4210">Infinity Font without Eye Logo</title>
  <defs
     id="defs4" />
  <sodipodi:namedview
     id="base"
     pagecolor="#000000"
     bordercolor="#666666"
     borderopacity="1.0"
     inkscape:pageopacity="0"
     inkscape:pageshadow="2"
     inkscape:zoom="1.4"
     inkscape:cx="89.885235"
     inkscape:cy="59.102813"
     inkscape:document-units="px"
     inkscape:current-layer="layer1"
     showgrid="false"
     showguides="true"
     inkscape:guide-bbox="true"
     inkscape:window-width="1366"
     inkscape:window-height="746"
     inkscape:window-x="-8"
     inkscape:window-y="-8"
     inkscape:window-maximized="1"
     fit-margin-top="0"
     fit-margin-left="0"
     fit-margin-right="0"
     fit-margin-bottom="0">
    <sodipodi:guide
       orientation="0,1"
       position="-104.30859,3.398436"
       id="guide3034" />
    <sodipodi:guide
       orientation="0,1"
       position="-135.38001,37.327007"
       id="guide3036" />
    <sodipodi:guide
       orientation="1,0"
       position="-135.38001,37.327007"
       id="guide3038" />
    <sodipodi:guide
       orientation="1,0"
       position="-21.45144,60.18415"
       id="guide3080" />
    <sodipodi:guide
       orientation="1,0"
       position="-32.52287,54.46986"
       id="guide3082" />
    <sodipodi:guide
       orientation="1,0"
       position="-42.70144,53.57701"
       id="guide3084" />
    <sodipodi:guide
       orientation="1,0"
       position="-0.02287,113.75558"
       id="guide4220" />
  </sodipodi:namedview>
  <metadata
     id="metadata7">
    <rdf:RDF>
      <cc:Work
         rdf:about="">
        <dc:format>image/svg+xml</dc:format>
        <dc:type
           rdf:resource="http://purl.org/dc/dcmitype/StillImage" />
        <dc:title>Infinity Font without Eye Logo</dc:title>
      </cc:Work>
    </rdf:RDF>
  </metadata>
  <g
     inkscape:label="Layer 1"
     inkscape:groupmode="layer"
     id="layer1"
     transform="translate(-303.5943,-847.54633)">
    <g
       id="g3103"
       transform="matrix(1.3673187,0,0,1.3673187,-88.838411,-392.9211)">
      <g
         id="text3026"
         style="font-size:20px;font-style:normal;font-variant:normal;font-weight:normal;font-stretch:normal;line-height:125%;letter-spacing:0px;word-spacing:0px;fill:#000000;fill-opacity:1;stroke:none;font-family:Infinity;-inkscape-font-specification:Infinity">
        <path
           id="path3023"
           d="m 307.18805,994.14789 c -0.1237,0 -0.18555,-0.0618 -0.18555,-0.18555 l 0,-13.4375 -3.22265,0 c -0.1237,10e-6 -0.18555,-0.0651 -0.18555,-0.19531 0,-0.12369 0.0619,-0.18553 0.18555,-0.18555 l 6.8164,0 c 0.12369,2e-5 0.18554,0.0619 0.18555,0.18555 -10e-6,0.13022 -0.0619,0.19532 -0.18555,0.19531 l -3.21289,0 0,13.4375 c 0,0.1237 -0.0651,0.18555 -0.19531,0.18555 z"
           inkscape:connector-curvature="0" />
        <path
           id="path3025"
           d="m 319.54156,994.14789 c -0.1237,0 -0.18555,-0.0618 -0.18554,-0.18555 l 0,-6.8164 c -0.007,-0.5664 -0.14649,-1.11979 -0.41992,-1.66016 -0.54038,-1.03515 -1.47462,-1.55273 -2.80274,-1.55274 -1.32813,10e-6 -2.25912,0.51759 -2.79297,1.55274 -0.27995,0.54037 -0.41992,1.09376 -0.41992,1.66016 l 0,6.8164 c 0,0.1237 -0.0651,0.18555 -0.19531,0.18555 -0.1237,0 -0.18555,-0.0618 -0.18555,-0.18555 l 0,-13.63281 c 0,-0.12369 0.0618,-0.18553 0.18555,-0.18555 0.13021,2e-5 0.19531,0.0619 0.19531,0.18555 l 0,5.18555 c 0.57943,-1.30859 1.65039,-1.96288 3.21289,-1.96289 1.48437,10e-6 2.52929,0.59571 3.13477,1.7871 0.30598,0.60548 0.45897,1.20769 0.45898,1.80665 l 0,6.8164 c -10e-6,0.1237 -0.0619,0.18555 -0.18555,0.18555 z"
           inkscape:connector-curvature="0" />
        <path
           id="path3027"
           d="m 328.2818,986.96039 c -0.0521,-0.67708 -0.2474,-1.26952 -0.58594,-1.77735 -0.5599,-0.83332 -1.4323,-1.24999 -2.61719,-1.25 -1.18489,10e-6 -2.05729,0.41668 -2.61718,1.25 -0.33855,0.50783 -0.53386,1.10027 -0.58594,1.77735 z m -3.20313,7.1875 c -1.48437,0 -2.52604,-0.5957 -3.125,-1.78711 -0.3125,-0.60547 -0.46875,-1.20768 -0.46875,-1.80664 l 0,-3.4082 c 0.007,-0.63151 0.16927,-1.24674 0.48829,-1.84571 0.60546,-1.16535 1.64062,-1.74803 3.10546,-1.74804 1.48437,10e-6 2.52604,0.59571 3.125,1.7871 0.3125,0.61199 0.46875,1.2142 0.46875,1.80665 0,0.13021 -0.0618,0.19531 -0.18554,0.19531 l -6.6211,0 0,3.21289 c 0,0.56641 0.13998,1.11979 0.41993,1.66015 0.53385,1.03516 1.46484,1.55274 2.79296,1.55274 1.32812,0 2.26237,-0.51758 2.80274,-1.55274 0.27343,-0.54036 0.41015,-1.09374 0.41015,-1.66015 0,-0.1237 0.0651,-0.18554 0.19532,-0.18555 0.12369,10e-6 0.18554,0.0618 0.18554,0.18555 0,0.59896 -0.15625,1.20117 -0.46875,1.80664 -0.59896,1.19141 -1.64063,1.78711 -3.125,1.78711 z"
           inkscape:connector-curvature="0" />
        <path
           id="path3029"
           d="m 338.98492,980.52484 c -1.32812,10e-6 -2.25911,0.51759 -2.79296,1.55274 -0.27995,0.54037 -0.41993,1.09376 -0.41993,1.66015 l 0,6.81641 c 0,0.56641 0.13998,1.11979 0.41993,1.66015 0.53385,1.03516 1.46484,1.55274 2.79296,1.55274 1.32812,0 2.26237,-0.51758 2.80274,-1.55274 0.27343,-0.54036 0.4134,-1.09374 0.41992,-1.66015 l 0,-6.81641 c -0.007,-0.56639 -0.14649,-1.11978 -0.41992,-1.66015 -0.54037,-1.03515 -1.47462,-1.55273 -2.80274,-1.55274 z m 0,13.62305 c -1.48437,0 -2.52604,-0.5957 -3.125,-1.78711 -0.3125,-0.60547 -0.46875,-1.20768 -0.46875,-1.80664 l 0,-6.81641 c 0,-0.59895 0.15625,-1.20116 0.46875,-1.80664 0.59896,-1.19139 1.64063,-1.78709 3.125,-1.78711 1.48437,2e-5 2.52929,0.59572 3.13477,1.78711 0.30598,0.60548 0.45898,1.20769 0.45898,1.80664 l 0,6.81641 c 0,0.59896 -0.153,1.20117 -0.45898,1.80664 -0.60548,1.19141 -1.6504,1.78711 -3.13477,1.78711 z"
           inkscape:connector-curvature="0" />
        <path
           id="path3031"
           d="m 351.56305,993.96234 c -10e-6,0.1237 -0.0619,0.18555 -0.18555,0.18555 -0.1237,0 -0.18555,-0.0618 -0.18554,-0.18555 l 0,-6.8164 c -10e-6,-0.5664 -0.13999,-1.11979 -0.41993,-1.66016 -0.54037,-1.03515 -1.47461,-1.55273 -2.80273,-1.55274 -1.32813,10e-6 -2.26237,0.51759 -2.80274,1.55274 -0.27343,0.54037 -0.41015,1.09376 -0.41015,1.66016 l 0,6.8164 c 0,0.1237 -0.0651,0.18555 -0.19531,0.18555 -0.1237,0 -0.18555,-0.0618 -0.18555,-0.18555 l 0,-10.22461 c 0,-0.12369 0.0619,-0.18553 0.18555,-0.18554 0.1302,10e-6 0.19531,0.0619 0.19531,0.18554 l 0,1.78711 c 0.57942,-1.31509 1.65039,-1.97264 3.21289,-1.97265 1.48437,10e-6 2.52929,0.59571 3.13476,1.7871 0.30599,0.60548 0.45898,1.20769 0.45899,1.80665 z"
           inkscape:connector-curvature="0" />
        <path
           id="path3033"
           d="m 353.50641,994.14789 c -0.1237,0 -0.18555,-0.0618 -0.18555,-0.18555 l 0,-13.63281 c 0,-0.12369 0.0618,-0.18553 0.18555,-0.18555 0.13021,2e-5 0.19531,0.0619 0.19531,0.18555 l 0,13.63281 c 0,0.1237 -0.0651,0.18555 -0.19531,0.18555 z"
           inkscape:connector-curvature="0" />
        <path
           id="path3035"
           d="m 355.65485,994.14789 c -0.1237,0 -0.18555,-0.0651 -0.18555,-0.19531 l 0,-10.21485 c 0,-0.12369 0.0619,-0.18553 0.18555,-0.18554 0.1302,10e-6 0.19531,0.0619 0.19531,0.18554 l 0,10.21485 c 0,0.1302 -0.0651,0.19531 -0.19531,0.19531 z m 0.2539,-13.74024 c 0,0.16929 -0.0846,0.25392 -0.2539,0.25391 -0.16928,10e-6 -0.25391,-0.0846 -0.25391,-0.25391 0,-0.16925 0.0846,-0.25389 0.25391,-0.2539 0.16927,1e-5 0.2539,0.0847 0.2539,0.2539 z"
           inkscape:connector-curvature="0" />
        <path
           id="path3037"
           d="m 364.80524,993.96234 c -1e-5,0.1237 -0.0619,0.18555 -0.18555,0.18555 -0.12371,0 -0.18555,-0.0618 -0.18555,-0.18555 l 0,-6.8164 c 0,-0.5664 -0.13998,-1.11979 -0.41992,-1.66016 -0.54037,-1.03515 -1.47461,-1.55273 -2.80273,-1.55274 -1.32813,10e-6 -2.26238,0.51759 -2.80274,1.55274 -0.27344,0.54037 -0.41016,1.09376 -0.41015,1.66016 l 0,6.8164 c -1e-5,0.1237 -0.0651,0.18555 -0.19532,0.18555 -0.1237,0 -0.18554,-0.0618 -0.18554,-0.18555 l 0,-10.22461 c 0,-0.12369 0.0618,-0.18553 0.18554,-0.18554 0.13021,10e-6 0.19531,0.0619 0.19532,0.18554 l 0,1.78711 c 0.57942,-1.31509 1.65038,-1.97264 3.21289,-1.97265 1.48437,10e-6 2.52929,0.59571 3.13476,1.7871 0.30598,0.60548 0.45898,1.20769 0.45899,1.80665 z"
           inkscape:connector-curvature="0" />
        <path
           id="path3039"
           d="m 373.35992,986.96039 c -0.0521,-0.67708 -0.2474,-1.26952 -0.58593,-1.77735 -0.55991,-0.83332 -1.4323,-1.24999 -2.61719,-1.25 -1.1849,10e-6 -2.05729,0.41668 -2.61719,1.25 -0.33854,0.50783 -0.53385,1.10027 -0.58594,1.77735 z m -3.20312,7.1875 c -1.48438,0 -2.52604,-0.5957 -3.125,-1.78711 -0.3125,-0.60547 -0.46875,-1.20768 -0.46875,-1.80664 l 0,-3.4082 c 0.007,-0.63151 0.16927,-1.24674 0.48828,-1.84571 0.60547,-1.16535 1.64062,-1.74803 3.10547,-1.74804 1.48437,10e-6 2.52603,0.59571 3.125,1.7871 0.31249,0.61199 0.46874,1.2142 0.46875,1.80665 -10e-6,0.13021 -0.0619,0.19531 -0.18555,0.19531 l -6.62109,0 0,3.21289 c 0,0.56641 0.13997,1.11979 0.41992,1.66015 0.53385,1.03516 1.46484,1.55274 2.79297,1.55274 1.32812,0 2.26236,-0.51758 2.80273,-1.55274 0.27343,-0.54036 0.41015,-1.09374 0.41016,-1.66015 -10e-6,-0.1237 0.0651,-0.18554 0.19531,-0.18555 0.12369,10e-6 0.18554,0.0618 0.18555,0.18555 -10e-6,0.59896 -0.15626,1.20117 -0.46875,1.80664 -0.59897,1.19141 -1.64063,1.78711 -3.125,1.78711 z"
           inkscape:connector-curvature="0" />
        <path
           id="path3041"
           d="m 390.87946,994.14789 c -0.0977,0 -0.15627,-0.0488 -0.17579,-0.14649 l -3.22265,-12.88086 -3.22266,12.88086 c -0.026,0.0977 -0.0879,0.14649 -0.18555,0.14649 -0.0977,0 -0.1595,-0.0488 -0.18554,-0.14649 l -3.39844,-13.61328 c -0.0326,-0.12368 0.013,-0.20181 0.13672,-0.23437 0.1237,-0.026 0.19857,0.0195 0.22461,0.13672 l 3.22265,12.89062 3.22266,-12.89062 c 0.026,-0.0911 0.0879,-0.13671 0.18555,-0.13672 0.0976,1e-5 0.1595,0.0456 0.18554,0.13672 l 3.2129,12.89062 3.22265,-12.89062 c 0.0325,-0.11718 0.11066,-0.16275 0.23438,-0.13672 0.12368,0.0326 0.16925,0.11069 0.13672,0.23437 L 391.065,994.0014 c -0.026,0.0977 -0.0879,0.14649 -0.18554,0.14649 z"
           inkscape:connector-curvature="0" />
        <path
           id="path3043"
           d="m 403.04742,986.96039 c -0.0521,-0.67708 -0.2474,-1.26952 -0.58593,-1.77735 -0.55991,-0.83332 -1.4323,-1.24999 -2.61719,-1.25 -1.1849,10e-6 -2.05729,0.41668 -2.61719,1.25 -0.33854,0.50783 -0.53385,1.10027 -0.58594,1.77735 z m -3.20312,7.1875 c -1.48438,0 -2.52604,-0.5957 -3.125,-1.78711 -0.3125,-0.60547 -0.46875,-1.20768 -0.46875,-1.80664 l 0,-3.4082 c 0.007,-0.63151 0.16927,-1.24674 0.48828,-1.84571 0.60547,-1.16535 1.64062,-1.74803 3.10547,-1.74804 1.48437,10e-6 2.52603,0.59571 3.125,1.7871 0.31249,0.61199 0.46874,1.2142 0.46875,1.80665 -10e-6,0.13021 -0.0619,0.19531 -0.18555,0.19531 l -6.62109,0 0,3.21289 c 0,0.56641 0.13997,1.11979 0.41992,1.66015 0.53385,1.03516 1.46484,1.55274 2.79297,1.55274 1.32812,0 2.26236,-0.51758 2.80273,-1.55274 0.27343,-0.54036 0.41015,-1.09374 0.41016,-1.66015 -10e-6,-0.1237 0.0651,-0.18554 0.19531,-0.18555 0.12369,10e-6 0.18554,0.0618 0.18555,0.18555 -10e-6,0.59896 -0.15626,1.20117 -0.46875,1.80664 -0.59897,1.19141 -1.64063,1.78711 -3.125,1.78711 z"
           inkscape:connector-curvature="0" />
        <path
           id="path3045"
           d="m 412.01227,990.55414 c -10e-6,0.56641 -0.13998,1.11979 -0.41992,1.66015 -0.53386,1.03516 -1.46811,1.55274 -2.80274,1.55274 -1.32813,0 -2.25912,-0.51758 -2.79297,-1.55274 -0.27995,-0.54036 -0.41992,-1.09374 -0.41992,-1.66015 l 0,-3.4082 c 0,-0.5664 0.13672,-1.11979 0.41016,-1.66016 0.54036,-1.03515 1.4746,-1.55273 2.80273,-1.55274 1.32812,10e-6 2.26236,0.51759 2.80274,1.55274 0.27994,0.54037 0.41991,1.09376 0.41992,1.66016 z m -3.22266,-7.00195 c -1.5625,10e-6 -2.63346,0.65756 -3.21289,1.97265 l 0,-5.19531 c 0,-0.12369 -0.0651,-0.18553 -0.19531,-0.18555 -0.1237,2e-5 -0.18555,0.0619 -0.18555,0.18555 l 0,13.63281 c 0,0.1237 0.0618,0.18555 0.18555,0.18555 0.13021,0 0.19531,-0.0618 0.19531,-0.18555 l 0,-1.78711 c 0.57943,1.31511 1.65039,1.97266 3.21289,1.97266 1.48437,0 2.52929,-0.5957 3.13477,-1.78711 0.30598,-0.60547 0.45897,-1.20768 0.45898,-1.80664 l 0,-3.4082 c -10e-6,-0.59896 -0.153,-1.20117 -0.45898,-1.80665 -0.60548,-1.19139 -1.6504,-1.78709 -3.13477,-1.7871 z"
           inkscape:connector-curvature="0" />
        <path
           id="path3047"
           d="m 419.48297,986.96039 3.21289,0 c 0.5664,-0.007 1.11979,-0.14648 1.66016,-0.41992 1.04166,-0.54036 1.56249,-1.4746 1.5625,-2.80274 -10e-6,-1.32811 -0.52084,-2.2591 -1.5625,-2.79297 -0.54037,-0.27993 -1.09376,-0.41991 -1.66016,-0.41992 l -3.21289,0 z m -0.19531,7.1875 c -0.1237,0 -0.18555,-0.0618 -0.18555,-0.18555 l 0,-13.63281 c 0,-0.12369 0.0618,-0.18553 0.18555,-0.18555 l 3.4082,0 c 0.59895,2e-5 1.20442,0.15627 1.81641,0.46875 1.18489,0.59897 1.77733,1.64064 1.77734,3.125 -10e-6,1.48439 -0.59245,2.52931 -1.77734,3.13477 -0.61199,0.30599 -1.21746,0.45899 -1.81641,0.45898 l -3.21289,0 0,6.63086 c 0,0.1237 -0.0651,0.18555 -0.19531,0.18555 z"
           inkscape:connector-curvature="0" />
        <path
           id="path3049"
           d="m 431.64117,983.93304 c -1.32812,10e-6 -2.26237,0.51759 -2.80273,1.55274 -0.27344,0.54037 -0.41016,1.09376 -0.41016,1.66016 l 0,3.4082 c 0,0.56641 0.13998,1.11979 0.41993,1.66015 0.53385,1.03516 1.46484,1.55274 2.79296,1.55274 1.33463,0 2.26888,-0.51758 2.80274,-1.55274 0.27994,-0.54036 0.41991,-1.09374 0.41992,-1.66015 l 0,-3.4082 c -0.007,-0.5664 -0.14649,-1.11979 -0.41992,-1.66016 -0.54037,-1.03515 -1.47462,-1.55273 -2.80274,-1.55274 z m 0,10.21485 c -1.48437,0 -2.52604,-0.5957 -3.125,-1.78711 -0.3125,-0.60547 -0.46875,-1.20768 -0.46875,-1.80664 l 0,-3.4082 c 0,-0.59896 0.15625,-1.20117 0.46875,-1.80665 0.59896,-1.19139 1.64063,-1.78709 3.125,-1.7871 1.48437,10e-6 2.52929,0.59571 3.13477,1.7871 0.30598,0.60548 0.45898,1.20769 0.45898,1.80665 l 0,3.4082 c 0,0.59896 -0.153,1.20117 -0.45898,1.80664 -0.60548,1.19141 -1.6504,1.78711 -3.13477,1.78711 z"
           inkscape:connector-curvature="0" />
        <path
           id="path3051"
           d="m 444.18024,987.14594 c -1e-5,0.13021 -0.0619,0.19531 -0.18555,0.19531 -0.13022,0 -0.19532,-0.0651 -0.19531,-0.19531 -10e-6,-0.5664 -0.13673,-1.11653 -0.41016,-1.6504 -0.54037,-1.04165 -1.47461,-1.56249 -2.80273,-1.5625 -1.32813,10e-6 -2.26238,0.52085 -2.80274,1.5625 -0.27344,0.53387 -0.41016,1.084 -0.41015,1.6504 l 0,6.8164 c -1e-5,0.1237 -0.0651,0.18555 -0.19532,0.18555 -0.1237,0 -0.18554,-0.0618 -0.18554,-0.18555 l 0,-10.22461 c 0,-0.12369 0.0618,-0.18553 0.18554,-0.18554 0.13021,10e-6 0.19531,0.0619 0.19532,0.18554 l 0,1.78711 c 0.57942,-1.31509 1.65038,-1.97264 3.21289,-1.97265 1.48437,10e-6 2.52929,0.59571 3.13476,1.7871 0.30598,0.60548 0.45898,1.20769 0.45899,1.80665 z"
           inkscape:connector-curvature="0" />
        <path
           id="path3053"
           d="m 449.72711,993.96234 c 0,0.1237 -0.0651,0.18555 -0.19531,0.18555 -0.59896,0 -1.20118,-0.15625 -1.80664,-0.46875 -1.19141,-0.60547 -1.78711,-1.64714 -1.78711,-3.125 l 0,-10.22461 c 0,-0.12369 0.0619,-0.18553 0.18555,-0.18555 0.1302,2e-5 0.19531,0.0619 0.19531,0.18555 l 0,3.22266 3.21289,0 c 0.1302,10e-6 0.19531,0.0619 0.19531,0.18554 0,0.12371 -0.0651,0.18556 -0.19531,0.18555 l -3.21289,0 0,6.63086 c 0,1.32813 0.52083,2.25911 1.5625,2.79297 0.53385,0.27995 1.08398,0.41992 1.65039,0.41992 0.1302,0 0.19531,0.0651 0.19531,0.19531 z"
           inkscape:connector-curvature="0" />
        <path
           id="path3055"
           d="m 455.27399,987.14594 c -1e-5,0.1237 -0.0651,0.18555 -0.19532,0.18554 l -3.21289,0 0,6.63086 c 0,0.1237 -0.0651,0.18555 -0.19531,0.18555 -0.1237,0 -0.18555,-0.0618 -0.18555,-0.18555 l 0,-10.22461 c 0,-1.47785 0.59571,-2.51952 1.78711,-3.125 0.60547,-0.31248 1.20768,-0.46873 1.80664,-0.46875 0.13021,2e-5 0.19531,0.0619 0.19532,0.18555 -1e-5,0.13022 -0.0651,0.19532 -0.19532,0.19531 -0.56641,10e-6 -1.11979,0.13999 -1.66015,0.41992 -1.03516,0.53387 -1.55274,1.46486 -1.55274,2.79297 l 0,3.22266 3.21289,0 c 0.13021,1e-5 0.19531,0.0619 0.19532,0.18555 z"
           inkscape:connector-curvature="0" />
        <path
           id="path3057"
           d="m 460.62555,983.93304 c -1.32813,10e-6 -2.26237,0.51759 -2.80274,1.55274 -0.27343,0.54037 -0.41015,1.09376 -0.41015,1.66016 l 0,3.4082 c 0,0.56641 0.13997,1.11979 0.41992,1.66015 0.53385,1.03516 1.46484,1.55274 2.79297,1.55274 1.33463,0 2.26887,-0.51758 2.80273,-1.55274 0.27994,-0.54036 0.41992,-1.09374 0.41993,-1.66015 l 0,-3.4082 c -0.007,-0.5664 -0.1465,-1.11979 -0.41993,-1.66016 -0.54037,-1.03515 -1.47461,-1.55273 -2.80273,-1.55274 z m 0,10.21485 c -1.48438,0 -2.52604,-0.5957 -3.125,-1.78711 -0.3125,-0.60547 -0.46875,-1.20768 -0.46875,-1.80664 l 0,-3.4082 c 0,-0.59896 0.15625,-1.20117 0.46875,-1.80665 0.59896,-1.19139 1.64062,-1.78709 3.125,-1.7871 1.48437,10e-6 2.52929,0.59571 3.13476,1.7871 0.30599,0.60548 0.45898,1.20769 0.45899,1.80665 l 0,3.4082 c -10e-6,0.59896 -0.153,1.20117 -0.45899,1.80664 -0.60547,1.19141 -1.65039,1.78711 -3.13476,1.78711 z"
           inkscape:connector-curvature="0" />
        <path
           id="path3059"
           d="m 466.16266,994.14789 c -0.1237,0 -0.18555,-0.0618 -0.18555,-0.18555 l 0,-13.63281 c 0,-0.12369 0.0618,-0.18553 0.18555,-0.18555 0.13021,2e-5 0.19531,0.0619 0.19531,0.18555 l 0,13.63281 c 0,0.1237 -0.0651,0.18555 -0.19531,0.18555 z"
           inkscape:connector-curvature="0" />
        <path
           id="path3061"
           d="m 468.3111,994.14789 c -0.1237,0 -0.18555,-0.0651 -0.18555,-0.19531 l 0,-10.21485 c 0,-0.12369 0.0619,-0.18553 0.18555,-0.18554 0.1302,10e-6 0.19531,0.0619 0.19531,0.18554 l 0,10.21485 c 0,0.1302 -0.0651,0.19531 -0.19531,0.19531 z m 0.2539,-13.74024 c 0,0.16929 -0.0846,0.25392 -0.2539,0.25391 -0.16928,10e-6 -0.25391,-0.0846 -0.25391,-0.25391 0,-0.16925 0.0846,-0.25389 0.25391,-0.2539 0.16927,1e-5 0.2539,0.0847 0.2539,0.2539 z"
           inkscape:connector-curvature="0" />
        <path
           id="path3063"
           d="m 473.86774,983.93304 c -1.32813,10e-6 -2.26238,0.51759 -2.80274,1.55274 -0.27344,0.54037 -0.41016,1.09376 -0.41015,1.66016 l 0,3.4082 c -1e-5,0.56641 0.13997,1.11979 0.41992,1.66015 0.53385,1.03516 1.46484,1.55274 2.79297,1.55274 1.33463,0 2.26887,-0.51758 2.80273,-1.55274 0.27994,-0.54036 0.41992,-1.09374 0.41992,-1.66015 l 0,-3.4082 c -0.007,-0.5664 -0.14649,-1.11979 -0.41992,-1.66016 -0.54037,-1.03515 -1.47461,-1.55273 -2.80273,-1.55274 z m 0,10.21485 c -1.48438,0 -2.52605,-0.5957 -3.125,-1.78711 -0.3125,-0.60547 -0.46875,-1.20768 -0.46875,-1.80664 l 0,-3.4082 c 0,-0.59896 0.15625,-1.20117 0.46875,-1.80665 0.59895,-1.19139 1.64062,-1.78709 3.125,-1.7871 1.48437,10e-6 2.52929,0.59571 3.13476,1.7871 0.30598,0.60548 0.45898,1.20769 0.45899,1.80665 l 0,3.4082 c -1e-5,0.59896 -0.15301,1.20117 -0.45899,1.80664 -0.60547,1.19141 -1.65039,1.78711 -3.13476,1.78711 z"
           inkscape:connector-curvature="0" />
        <path
           id="path3065"
           d="m 487.77399,983.93304 c -1.32813,10e-6 -2.26238,0.51759 -2.80274,1.55274 -0.27344,0.54037 -0.41016,1.09376 -0.41015,1.66016 l 0,3.4082 c -1e-5,0.56641 0.13997,1.11979 0.41992,1.66015 0.53385,1.03516 1.46484,1.55274 2.79297,1.55274 1.33463,0 2.26887,-0.51758 2.80273,-1.55274 0.27994,-0.54036 0.41992,-1.09374 0.41992,-1.66015 l 0,-3.4082 c -0.007,-0.5664 -0.14649,-1.11979 -0.41992,-1.66016 -0.54037,-1.03515 -1.47461,-1.55273 -2.80273,-1.55274 z m 0,10.21485 c -1.48438,0 -2.52605,-0.5957 -3.125,-1.78711 -0.3125,-0.60547 -0.46875,-1.20768 -0.46875,-1.80664 l 0,-3.4082 c 0,-0.59896 0.15625,-1.20117 0.46875,-1.80665 0.59895,-1.19139 1.64062,-1.78709 3.125,-1.7871 1.48437,10e-6 2.52929,0.59571 3.13476,1.7871 0.30598,0.60548 0.45898,1.20769 0.45899,1.80665 l 0,3.4082 c -1e-5,0.59896 -0.15301,1.20117 -0.45899,1.80664 -0.60547,1.19141 -1.65039,1.78711 -3.13476,1.78711 z"
           inkscape:connector-curvature="0" />
        <path
           id="path3067"
           d="m 496.91461,987.14594 c 0,0.1237 -0.0651,0.18555 -0.19531,0.18554 l -3.21289,0 0,6.63086 c 0,0.1237 -0.0651,0.18555 -0.19531,0.18555 -0.1237,0 -0.18555,-0.0618 -0.18555,-0.18555 l 0,-10.22461 c 0,-1.47785 0.5957,-2.51952 1.78711,-3.125 0.60546,-0.31248 1.20768,-0.46873 1.80664,-0.46875 0.1302,2e-5 0.19531,0.0619 0.19531,0.18555 0,0.13022 -0.0651,0.19532 -0.19531,0.19531 -0.56641,10e-6 -1.1198,0.13999 -1.66016,0.41992 -1.03516,0.53387 -1.55273,1.46486 -1.55273,2.79297 l 0,3.22266 3.21289,0 c 0.1302,1e-5 0.19531,0.0619 0.19531,0.18555 z"
           inkscape:connector-curvature="0" />
        <path
           id="path3069"
           d="m 507.22711,994.14789 c -1.48438,0 -2.52604,-0.5957 -3.125,-1.78711 -0.3125,-0.60547 -0.46875,-1.20768 -0.46875,-1.80664 l 0,-6.81641 c 0,-0.59895 0.15625,-1.20116 0.46875,-1.80664 0.59896,-1.19139 1.64062,-1.78709 3.125,-1.78711 l 3.39844,0 c 0.1302,2e-5 0.1953,0.0619 0.19531,0.18555 -10e-6,0.13022 -0.0619,0.19532 -0.18555,0.19531 l -3.4082,0 c -1.32813,10e-6 -2.25912,0.51759 -2.79297,1.55274 -0.27995,0.54037 -0.41992,1.09376 -0.41992,1.66015 l 0,6.81641 c 0,0.56641 0.13997,1.11979 0.41992,1.66015 0.53385,1.03516 1.46484,1.55274 2.79297,1.55274 l 3.39844,0 c 0.1302,0 0.1953,0.0651 0.19531,0.19531 -10e-6,0.1237 -0.0619,0.18555 -0.18555,0.18555 z"
           inkscape:connector-curvature="0" />
        <path
           id="path3071"
           d="m 519.58063,994.14789 c -0.12371,0 -0.18556,-0.0618 -0.18555,-0.18555 l 0,-6.8164 c -0.007,-0.5664 -0.14649,-1.11979 -0.41992,-1.66016 -0.54037,-1.03515 -1.47462,-1.55273 -2.80274,-1.55274 -1.32812,10e-6 -2.25911,0.51759 -2.79296,1.55274 -0.27995,0.54037 -0.41993,1.09376 -0.41993,1.66016 l 0,6.8164 c 0,0.1237 -0.0651,0.18555 -0.19531,0.18555 -0.1237,0 -0.18555,-0.0618 -0.18555,-0.18555 l 0,-13.63281 c 0,-0.12369 0.0619,-0.18553 0.18555,-0.18555 0.13021,2e-5 0.19531,0.0619 0.19531,0.18555 l 0,5.18555 c 0.57943,-1.30859 1.65039,-1.96288 3.21289,-1.96289 1.48437,10e-6 2.52929,0.59571 3.13477,1.7871 0.30598,0.60548 0.45898,1.20769 0.45898,1.80665 l 0,6.8164 c 0,0.1237 -0.0618,0.18555 -0.18554,0.18555 z"
           inkscape:connector-curvature="0" />
        <path
           id="path3073"
           d="m 528.71149,987.14594 c -10e-6,0.13021 -0.0619,0.19531 -0.18555,0.19531 -0.13022,0 -0.19532,-0.0651 -0.19531,-0.19531 -1e-5,-0.5664 -0.13673,-1.11653 -0.41016,-1.6504 -0.54037,-1.04165 -1.47461,-1.56249 -2.80273,-1.5625 -1.32813,10e-6 -2.26238,0.52085 -2.80274,1.5625 -0.27344,0.53387 -0.41016,1.084 -0.41015,1.6504 l 0,6.8164 c -10e-6,0.1237 -0.0651,0.18555 -0.19532,0.18555 -0.1237,0 -0.18554,-0.0618 -0.18554,-0.18555 l 0,-10.22461 c 0,-0.12369 0.0618,-0.18553 0.18554,-0.18554 0.13021,10e-6 0.19531,0.0619 0.19532,0.18554 l 0,1.78711 c 0.57942,-1.31509 1.65038,-1.97264 3.21289,-1.97265 1.48437,10e-6 2.52929,0.59571 3.13476,1.7871 0.30598,0.60548 0.45898,1.20769 0.45899,1.80665 z"
           inkscape:connector-curvature="0" />
        <path
           id="path3075"
           d="m 530.65485,994.14789 c -0.1237,0 -0.18555,-0.0651 -0.18555,-0.19531 l 0,-10.21485 c 0,-0.12369 0.0619,-0.18553 0.18555,-0.18554 0.1302,10e-6 0.19531,0.0619 0.19531,0.18554 l 0,10.21485 c 0,0.1302 -0.0651,0.19531 -0.19531,0.19531 z m 0.2539,-13.74024 c 0,0.16929 -0.0846,0.25392 -0.2539,0.25391 -0.16928,10e-6 -0.25391,-0.0846 -0.25391,-0.25391 0,-0.16925 0.0846,-0.25389 0.25391,-0.2539 0.16927,1e-5 0.2539,0.0847 0.2539,0.2539 z"
           inkscape:connector-curvature="0" />
        <path
           id="path3077"
           d="m 536.21149,994.14789 c -1.48438,0 -2.52605,-0.5957 -3.125,-1.78711 -0.3125,-0.60547 -0.46875,-1.20768 -0.46875,-1.80664 0,-0.1237 0.0618,-0.1888 0.18554,-0.19531 0.13021,0 0.19531,0.0651 0.19532,0.19531 -10e-6,0.56641 0.13997,1.11979 0.41992,1.66015 0.53385,1.03516 1.46484,1.55274 2.79297,1.55274 1.22395,0 2.11588,-0.44271 2.67578,-1.32813 0.319,-0.52083 0.49804,-1.11002 0.53711,-1.76757 l -6.69922,-3.35938 c -0.0716,-0.0325 -0.10742,-0.0879 -0.10742,-0.16601 0,-0.59896 0.15625,-1.20117 0.46875,-1.80665 0.59895,-1.19139 1.64062,-1.78709 3.125,-1.7871 1.48437,10e-6 2.52929,0.59571 3.13476,1.7871 0.30598,0.60548 0.45898,1.20769 0.45899,1.80665 -10e-6,0.1237 -0.0619,0.18555 -0.18555,0.18554 -0.12371,10e-6 -0.18555,-0.0618 -0.18555,-0.18554 -0.007,-0.5664 -0.14649,-1.11979 -0.41992,-1.66016 -0.54037,-1.03515 -1.47461,-1.55273 -2.80273,-1.55274 -1.22396,10e-6 -2.11264,0.44272 -2.66602,1.32813 -0.32552,0.52084 -0.50781,1.11003 -0.54687,1.76758 l 6.70898,3.35937 c 0.0651,0.0326 0.0977,0.0879 0.0977,0.16602 -1e-5,0.59896 -0.15301,1.20117 -0.45899,1.80664 -0.60547,1.19141 -1.65039,1.78711 -3.13476,1.78711 z"
           inkscape:connector-curvature="0" />
        <path
           id="path3079"
           d="m 545.35211,993.96234 c 0,0.1237 -0.0651,0.18555 -0.19531,0.18555 -0.59896,0 -1.20118,-0.15625 -1.80664,-0.46875 -1.19141,-0.60547 -1.78711,-1.64714 -1.78711,-3.125 l 0,-10.22461 c 0,-0.12369 0.0619,-0.18553 0.18555,-0.18555 0.1302,2e-5 0.19531,0.0619 0.19531,0.18555 l 0,3.22266 3.21289,0 c 0.1302,10e-6 0.19531,0.0619 0.19531,0.18554 0,0.12371 -0.0651,0.18556 -0.19531,0.18555 l -3.21289,0 0,6.63086 c 0,1.32813 0.52083,2.25911 1.5625,2.79297 0.53385,0.27995 1.08398,0.41992 1.65039,0.41992 0.1302,0 0.19531,0.0651 0.19531,0.19531 z"
           inkscape:connector-curvature="0" />
        <path
           id="path3081"
           d="m 550.70367,983.93304 c -1.32812,10e-6 -2.26237,0.51759 -2.80273,1.55274 -0.27344,0.54037 -0.41016,1.09376 -0.41016,1.66016 l 0,3.4082 c 0,0.56641 0.13998,1.11979 0.41993,1.66015 0.53385,1.03516 1.46484,1.55274 2.79296,1.55274 1.33463,0 2.26888,-0.51758 2.80274,-1.55274 0.27994,-0.54036 0.41991,-1.09374 0.41992,-1.66015 l 0,-3.4082 c -0.007,-0.5664 -0.14649,-1.11979 -0.41992,-1.66016 -0.54037,-1.03515 -1.47462,-1.55273 -2.80274,-1.55274 z m 0,10.21485 c -1.48437,0 -2.52604,-0.5957 -3.125,-1.78711 -0.3125,-0.60547 -0.46875,-1.20768 -0.46875,-1.80664 l 0,-3.4082 c 0,-0.59896 0.15625,-1.20117 0.46875,-1.80665 0.59896,-1.19139 1.64063,-1.78709 3.125,-1.7871 1.48437,10e-6 2.52929,0.59571 3.13477,1.7871 0.30598,0.60548 0.45898,1.20769 0.45898,1.80665 l 0,3.4082 c 0,0.59896 -0.153,1.20117 -0.45898,1.80664 -0.60548,1.19141 -1.6504,1.78711 -3.13477,1.78711 z"
           inkscape:connector-curvature="0" />
        <path
           id="path3083"
           d="m 562.86188,990.54437 c -1e-5,0.56641 -0.13673,1.1198 -0.41016,1.66016 -0.54037,1.04167 -1.47461,1.5625 -2.80273,1.5625 -1.32813,0 -2.25912,-0.52083 -2.79297,-1.5625 -0.27995,-0.54036 -0.41993,-1.09375 -0.41992,-1.66016 l 0,-3.39843 c -10e-6,-0.57291 0.13671,-1.1263 0.41015,-1.66016 0.54036,-1.04166 1.47461,-1.56249 2.80274,-1.5625 1.32812,10e-6 2.26236,0.52084 2.80273,1.5625 0.27343,0.54037 0.41015,1.09376 0.41016,1.66016 z m -3.21289,-6.99218 c -1.56251,10e-6 -2.63347,0.6543 -3.21289,1.96289 l 0,-1.77735 c -10e-6,-0.12369 -0.0651,-0.18553 -0.19532,-0.18554 -0.1237,10e-6 -0.18554,0.0619 -0.18554,0.18554 l 0,13.62305 c 0,0.12369 0.0618,0.18554 0.18554,0.18555 0.13021,-10e-6 0.19531,-0.0619 0.19532,-0.18555 l 0,-5.18555 c 0.57942,1.3086 1.65038,1.96289 3.21289,1.96289 1.48437,0 2.52603,-0.59244 3.125,-1.77734 0.31249,-0.61198 0.46874,-1.21745 0.46875,-1.81641 l 0,-3.39843 c -10e-6,-0.59896 -0.15626,-1.20442 -0.46875,-1.81641 -0.59897,-1.18489 -1.64063,-1.77733 -3.125,-1.77734 z"
           inkscape:connector-curvature="0" />
        <path
           id="path3085"
           d="m 572.0025,994.14789 c -0.1237,0 -0.18555,-0.0618 -0.18554,-0.18555 l 0,-6.8164 c -0.007,-0.5664 -0.1465,-1.11979 -0.41993,-1.66016 -0.54037,-1.03515 -1.47461,-1.55273 -2.80273,-1.55274 -1.32813,10e-6 -2.25912,0.51759 -2.79297,1.55274 -0.27995,0.54037 -0.41992,1.09376 -0.41992,1.66016 l 0,6.8164 c 0,0.1237 -0.0651,0.18555 -0.19531,0.18555 -0.1237,0 -0.18555,-0.0618 -0.18555,-0.18555 l 0,-13.63281 c 0,-0.12369 0.0619,-0.18553 0.18555,-0.18555 0.1302,2e-5 0.19531,0.0619 0.19531,0.18555 l 0,5.18555 c 0.57942,-1.30859 1.65039,-1.96288 3.21289,-1.96289 1.48437,10e-6 2.52929,0.59571 3.13476,1.7871 0.30599,0.60548 0.45898,1.20769 0.45899,1.80665 l 0,6.8164 c -10e-6,0.1237 -0.0619,0.18555 -0.18555,0.18555 z"
           inkscape:connector-curvature="0" />
        <path
           id="path3087"
           d="m 580.74274,986.96039 c -0.0521,-0.67708 -0.24741,-1.26952 -0.58594,-1.77735 -0.5599,-0.83332 -1.4323,-1.24999 -2.61719,-1.25 -1.1849,10e-6 -2.05729,0.41668 -2.61719,1.25 -0.33854,0.50783 -0.53385,1.10027 -0.58593,1.77735 z m -3.20313,7.1875 c -1.48438,0 -2.52604,-0.5957 -3.125,-1.78711 -0.3125,-0.60547 -0.46875,-1.20768 -0.46875,-1.80664 l 0,-3.4082 c 0.007,-0.63151 0.16927,-1.24674 0.48828,-1.84571 0.60547,-1.16535 1.64062,-1.74803 3.10547,-1.74804 1.48437,10e-6 2.52604,0.59571 3.125,1.7871 0.31249,0.61199 0.46874,1.2142 0.46875,1.80665 -1e-5,0.13021 -0.0619,0.19531 -0.18555,0.19531 l -6.62109,0 0,3.21289 c 0,0.56641 0.13997,1.11979 0.41992,1.66015 0.53385,1.03516 1.46484,1.55274 2.79297,1.55274 1.32812,0 2.26236,-0.51758 2.80274,-1.55274 0.27343,-0.54036 0.41014,-1.09374 0.41015,-1.66015 -1e-5,-0.1237 0.0651,-0.18554 0.19531,-0.18555 0.12369,10e-6 0.18554,0.0618 0.18555,0.18555 -1e-5,0.59896 -0.15626,1.20117 -0.46875,1.80664 -0.59896,1.19141 -1.64063,1.78711 -3.125,1.78711 z"
           inkscape:connector-curvature="0" />
        <path
           id="path3089"
           d="m 590.07867,987.14594 c 0,0.13021 -0.0618,0.19531 -0.18554,0.19531 -0.13022,0 -0.19532,-0.0651 -0.19532,-0.19531 0,-0.5664 -0.13672,-1.11653 -0.41015,-1.6504 -0.54037,-1.04165 -1.47462,-1.56249 -2.80274,-1.5625 -1.32812,10e-6 -2.26237,0.52085 -2.80273,1.5625 -0.27344,0.53387 -0.41016,1.084 -0.41016,1.6504 l 0,6.8164 c 0,0.1237 -0.0651,0.18555 -0.19531,0.18555 -0.1237,0 -0.18555,-0.0618 -0.18555,-0.18555 l 0,-10.22461 c 0,-0.12369 0.0619,-0.18553 0.18555,-0.18554 0.13021,10e-6 0.19531,0.0619 0.19531,0.18554 l 0,1.78711 c 0.57943,-1.31509 1.65039,-1.97264 3.21289,-1.97265 1.48437,10e-6 2.52929,0.59571 3.13477,1.7871 0.30598,0.60548 0.45898,1.20769 0.45898,1.80665 z"
           inkscape:connector-curvature="0" />
        <path
           id="path3091"
           d="m 607.20758,994.14789 c -0.0977,0 -0.15626,-0.0488 -0.17578,-0.14649 l -3.22266,-12.88086 -3.22265,12.88086 c -0.0261,0.0977 -0.0879,0.14649 -0.18555,0.14649 -0.0977,0 -0.15951,-0.0488 -0.18555,-0.14649 l -3.39843,-13.61328 c -0.0326,-0.12368 0.013,-0.20181 0.13671,-0.23437 0.1237,-0.026 0.19857,0.0195 0.22461,0.13672 l 3.22266,12.89062 3.22266,-12.89062 c 0.026,-0.0911 0.0879,-0.13671 0.18554,-0.13672 0.0977,1e-5 0.1595,0.0456 0.18555,0.13672 l 3.21289,12.89062 3.22266,-12.89062 c 0.0325,-0.11718 0.11066,-0.16275 0.23437,-0.13672 0.12368,0.0326 0.16926,0.11069 0.13672,0.23437 l -3.4082,13.61328 c -0.0261,0.0977 -0.0879,0.14649 -0.18555,0.14649 z"
           inkscape:connector-curvature="0" />
        <path
           id="path3093"
           d="m 612.76422,994.14789 c -0.1237,0 -0.18555,-0.0651 -0.18555,-0.19531 l 0,-10.21485 c 0,-0.12369 0.0619,-0.18553 0.18555,-0.18554 0.13021,10e-6 0.19531,0.0619 0.19531,0.18554 l 0,10.21485 c 0,0.1302 -0.0651,0.19531 -0.19531,0.19531 z m 0.25391,-13.74024 c 0,0.16929 -0.0846,0.25392 -0.25391,0.25391 -0.16927,10e-6 -0.25391,-0.0846 -0.25391,-0.25391 0,-0.16925 0.0846,-0.25389 0.25391,-0.2539 0.16927,1e-5 0.25391,0.0847 0.25391,0.2539 z"
           inkscape:connector-curvature="0" />
        <path
           id="path3095"
           d="m 614.91266,994.14789 c -0.1237,0 -0.18555,-0.0618 -0.18555,-0.18555 l 0,-13.63281 c 0,-0.12369 0.0618,-0.18553 0.18555,-0.18555 0.13021,2e-5 0.19531,0.0619 0.19531,0.18555 l 0,13.63281 c 0,0.1237 -0.0651,0.18555 -0.19531,0.18555 z"
           inkscape:connector-curvature="0" />
        <path
           id="path3097"
           d="m 620.4693,994.14789 c -1.48438,0 -2.52604,-0.5957 -3.125,-1.78711 -0.3125,-0.60547 -0.46875,-1.20768 -0.46875,-1.80664 0,-0.1237 0.0619,-0.1888 0.18555,-0.19531 0.1302,0 0.19531,0.0651 0.19531,0.19531 0,0.56641 0.13997,1.11979 0.41992,1.66015 0.53385,1.03516 1.46484,1.55274 2.79297,1.55274 1.22395,0 2.11588,-0.44271 2.67578,-1.32813 0.319,-0.52083 0.49804,-1.11002 0.53711,-1.76757 l -6.69922,-3.35938 c -0.0716,-0.0325 -0.10742,-0.0879 -0.10742,-0.16601 0,-0.59896 0.15625,-1.20117 0.46875,-1.80665 0.59896,-1.19139 1.64062,-1.78709 3.125,-1.7871 1.48437,10e-6 2.52929,0.59571 3.13476,1.7871 0.30599,0.60548 0.45898,1.20769 0.45899,1.80665 -10e-6,0.1237 -0.0619,0.18555 -0.18555,0.18554 -0.1237,10e-6 -0.18555,-0.0618 -0.18554,-0.18554 -0.007,-0.5664 -0.1465,-1.11979 -0.41993,-1.66016 -0.54037,-1.03515 -1.47461,-1.55273 -2.80273,-1.55274 -1.22396,10e-6 -2.11263,0.44272 -2.66602,1.32813 -0.32552,0.52084 -0.50781,1.11003 -0.54687,1.76758 l 6.70898,3.35937 c 0.0651,0.0326 0.0977,0.0879 0.0977,0.16602 -10e-6,0.59896 -0.153,1.20117 -0.45899,1.80664 -0.60547,1.19141 -1.65039,1.78711 -3.13476,1.78711 z"
           inkscape:connector-curvature="0" />
        <path
           id="path3099"
           d="m 629.41461,983.93304 c -1.32813,10e-6 -2.26237,0.51759 -2.80273,1.55274 -0.27344,0.54037 -0.41016,1.09376 -0.41016,1.66016 l 0,3.4082 c 0,0.56641 0.13997,1.11979 0.41992,1.66015 0.53385,1.03516 1.46484,1.55274 2.79297,1.55274 1.33463,0 2.26888,-0.51758 2.80274,-1.55274 0.27994,-0.54036 0.41991,-1.09374 0.41992,-1.66015 l 0,-3.4082 c -0.007,-0.5664 -0.14649,-1.11979 -0.41992,-1.66016 -0.54038,-1.03515 -1.47462,-1.55273 -2.80274,-1.55274 z m 0,10.21485 c -1.48438,0 -2.52604,-0.5957 -3.125,-1.78711 -0.3125,-0.60547 -0.46875,-1.20768 -0.46875,-1.80664 l 0,-3.4082 c 0,-0.59896 0.15625,-1.20117 0.46875,-1.80665 0.59896,-1.19139 1.64062,-1.78709 3.125,-1.7871 1.48437,10e-6 2.52929,0.59571 3.13477,1.7871 0.30598,0.60548 0.45897,1.20769 0.45898,1.80665 l 0,3.4082 c -1e-5,0.59896 -0.153,1.20117 -0.45898,1.80664 -0.60548,1.19141 -1.6504,1.78711 -3.13477,1.78711 z"
           inkscape:connector-curvature="0" />
        <path
           id="path3101"
           d="m 641.95367,993.96234 c 0,0.1237 -0.0618,0.18555 -0.18554,0.18555 -0.12371,0 -0.18556,-0.0618 -0.18555,-0.18555 l 0,-6.8164 c -10e-6,-0.5664 -0.13998,-1.11979 -0.41992,-1.66016 -0.54037,-1.03515 -1.47462,-1.55273 -2.80274,-1.55274 -1.32812,10e-6 -2.26237,0.51759 -2.80273,1.55274 -0.27344,0.54037 -0.41016,1.09376 -0.41016,1.66016 l 0,6.8164 c 0,0.1237 -0.0651,0.18555 -0.19531,0.18555 -0.1237,0 -0.18555,-0.0618 -0.18555,-0.18555 l 0,-10.22461 c 0,-0.12369 0.0619,-0.18553 0.18555,-0.18554 0.13021,10e-6 0.19531,0.0619 0.19531,0.18554 l 0,1.78711 c 0.57943,-1.31509 1.65039,-1.97264 3.21289,-1.97265 1.48437,10e-6 2.52929,0.59571 3.13477,1.7871 0.30598,0.60548 0.45898,1.20769 0.45898,1.80665 z"
           inkscape:connector-curvature="0" />
      </g>
      <g
         id="flowRoot4212"
         style="font-size:48px;font-style:normal;font-variant:normal;font-weight:normal;font-stretch:normal;line-height:125%;letter-spacing:0px;word-spacing:0px;fill:#000000;fill-opacity:1;stroke:none;font-family:Infinity;-inkscape-font-specification:Infinity"
         transform="translate(54.992755,898.94977)">
        <path
           inkscape:connector-curvature="0"
           id="path3000"
           d="m 304.53125,61.269554 c -0.29689,0 -0.44532,-0.148437 -0.44531,-0.445312 l 0,-32.25 -7.73438,0 c -0.29687,3.2e-5 -0.44531,-0.156218 -0.44531,-0.46875 0,-0.296842 0.14844,-0.445279 0.44531,-0.445313 l 16.35938,0 c 0.29685,3.4e-5 0.44529,0.148471 0.44531,0.445313 -2e-5,0.312532 -0.14846,0.468782 -0.44531,0.46875 l -7.71094,0 0,32.25 c -10e-6,0.296875 -0.15626,0.445312 -0.46875,0.445312 z" />
        <path
           inkscape:connector-curvature="0"
           id="path3002"
           d="m 334.17969,61.269554 c -0.2969,0 -0.44533,-0.148437 -0.44532,-0.445312 l 0,-16.359375 c -0.0156,-1.359357 -0.35158,-2.687481 -1.00781,-3.984375 -1.29689,-2.484352 -3.53907,-3.726538 -6.72656,-3.726563 -3.18751,2.5e-5 -5.42188,1.242211 -6.70313,3.726563 -0.67187,1.296894 -1.00781,2.625018 -1.00781,3.984375 l 0,16.359375 c 0,0.296875 -0.15625,0.445312 -0.46875,0.445312 -0.29687,0 -0.44531,-0.148437 -0.44531,-0.445312 l 0,-32.71875 c 0,-0.296842 0.14844,-0.445279 0.44531,-0.445313 0.3125,3.4e-5 0.46875,0.148471 0.46875,0.445313 l 0,12.445312 c 1.39062,-3.140601 3.96093,-4.710912 7.71094,-4.710937 3.56249,2.5e-5 6.0703,1.429711 7.52344,4.289062 0.73435,1.453145 1.10154,2.898456 1.10156,4.335938 l 0,16.359375 c -2e-5,0.296875 -0.14846,0.445312 -0.44531,0.445312 z" />
        <path
           inkscape:connector-curvature="0"
           id="path3004"
           d="m 355.15625,44.019554 c -0.12502,-1.624981 -0.59377,-3.046855 -1.40625,-4.265625 -1.34377,-1.999976 -3.43751,-2.999975 -6.28125,-3 -2.84376,2.5e-5 -4.93751,1.000024 -6.28125,3 -0.8125,1.21877 -1.28125,2.640644 -1.40625,4.265625 z m -7.6875,17.25 c -3.56251,0 -6.0625,-1.429686 -7.5,-4.289062 -0.75,-1.45312 -1.125,-2.898431 -1.125,-4.335938 l 0,-8.179687 c 0.0156,-1.515607 0.40625,-2.992168 1.17187,-4.429688 1.45313,-2.796851 3.9375,-4.195287 7.45313,-4.195312 3.56249,2.5e-5 6.06248,1.429711 7.5,4.289062 0.74998,1.46877 1.12498,2.914081 1.125,4.335938 -2e-5,0.312516 -0.14846,0.468766 -0.44531,0.46875 l -15.89063,0 0,7.710937 c 0,1.359382 0.33594,2.687506 1.00781,3.984375 1.28125,2.484377 3.51562,3.726564 6.70313,3.726563 3.18749,1e-6 5.42967,-1.242186 6.72656,-3.726563 0.65623,-1.296869 0.98436,-2.624993 0.98438,-3.984375 -2e-5,-0.296866 0.15623,-0.445303 0.46875,-0.445312 0.29685,9e-6 0.44529,0.148446 0.44531,0.445312 -2e-5,1.437507 -0.37502,2.882818 -1.125,4.335938 -1.43752,2.859376 -3.93751,4.289062 -7.5,4.289062 z" />
        <path
           inkscape:connector-curvature="0"
           id="path3006"
           d="m 372.66406,61.269554 c -0.29687,0 -0.44531,-0.148437 -0.44531,-0.445312 0,-0.3125 0.14844,-0.468749 0.44531,-0.46875 l 8.17969,0 c 1.35936,1e-6 2.68749,-0.335937 3.98437,-1.007813 2.49999,-1.281247 3.74999,-3.515619 3.75,-6.703125 -1e-5,-3.187488 -1.25001,-5.429673 -3.75,-6.726562 -1.29688,-0.656234 -2.62501,-0.992172 -3.98437,-1.007813 -1.43751,1.6e-5 -2.88282,-0.367171 -4.33594,-1.101562 -2.85938,-1.453106 -4.28906,-3.960916 -4.28906,-7.523438 0,-3.546846 1.42968,-6.046844 4.28906,-7.5 1.45312,-0.749967 2.89843,-1.124966 4.33594,-1.125 l 8.17969,0 c 0.29685,3.4e-5 0.44529,0.156284 0.44531,0.46875 -2e-5,0.296908 -0.14846,0.445345 -0.44531,0.445313 l -8.17969,0 c -1.35938,3.2e-5 -2.68751,0.335969 -3.98438,1.007812 -2.48437,1.28128 -3.72656,3.515653 -3.72656,6.703125 0,3.187522 1.24219,5.429707 3.72656,6.726563 1.29687,0.656267 2.625,0.992204 3.98438,1.007812 1.43749,1.7e-5 2.89061,0.367204 4.35937,1.101563 2.84374,1.453139 4.26561,3.960949 4.26563,7.523437 -2e-5,3.562505 -1.42189,6.062503 -4.26563,7.5 -1.46876,0.75 -2.92188,1.125 -4.35937,1.125 z" />
        <path
           inkscape:connector-curvature="0"
           id="path3008"
           d="m 402.21875,61.269554 c -3.56251,0 -6.0625,-1.429686 -7.5,-4.289062 -0.75,-1.45312 -1.125,-2.898431 -1.125,-4.335938 l 0,-8.179687 c 0,-1.421857 0.375,-2.867168 1.125,-4.335938 1.4375,-2.859351 3.93749,-4.289037 7.5,-4.289062 3.56249,2.5e-5 6.06248,1.429711 7.5,4.289062 0.74998,1.46877 1.12498,2.914081 1.125,4.335938 -2e-5,0.312516 -0.14846,0.468766 -0.44531,0.46875 -0.31252,1.6e-5 -0.46877,-0.156234 -0.46875,-0.46875 -2e-5,-1.359357 -0.33596,-2.679668 -1.00782,-3.960938 -1.28126,-2.499977 -3.51563,-3.749975 -6.70312,-3.75 -3.18751,2.5e-5 -5.42969,1.250023 -6.72656,3.75 -0.65626,1.28127 -0.98438,2.601581 -0.98438,3.960938 l 0,8.179687 c 0,1.359382 0.33594,2.687506 1.00781,3.984375 1.28125,2.484377 3.51562,3.726564 6.70313,3.726563 3.18749,1e-6 5.42967,-1.242186 6.72656,-3.726563 0.65623,-1.296869 0.98436,-2.624993 0.98438,-3.984375 -2e-5,-0.296866 0.15623,-0.445303 0.46875,-0.445312 0.29685,9e-6 0.44529,0.148446 0.44531,0.445312 -2e-5,1.437507 -0.37502,2.882818 -1.125,4.335938 -1.43752,2.859376 -3.93751,4.289062 -7.5,4.289062 z" />
        <path
           inkscape:connector-curvature="0"
           id="path3010"
           d="m 423.6875,36.753929 c -3.18751,2.5e-5 -5.42969,1.242211 -6.72656,3.726563 -0.65626,1.296894 -0.98438,2.625018 -0.98438,3.984375 l 0,8.179687 c 0,1.359382 0.33594,2.687506 1.00781,3.984375 1.28125,2.484377 3.51562,3.726564 6.70313,3.726563 3.20311,1e-6 5.4453,-1.242186 6.72656,-3.726563 0.67186,-1.296869 1.0078,-2.624993 1.00781,-3.984375 l 0,-8.179687 c -0.0156,-1.359357 -0.35158,-2.687481 -1.00781,-3.984375 -1.29689,-2.484352 -3.53907,-3.726538 -6.72656,-3.726563 z m 0,24.515625 c -3.56251,0 -6.0625,-1.429686 -7.5,-4.289062 -0.75,-1.45312 -1.125,-2.898431 -1.125,-4.335938 l 0,-8.179687 c 0,-1.437482 0.375,-2.882793 1.125,-4.335938 1.4375,-2.859351 3.93749,-4.289037 7.5,-4.289062 3.56249,2.5e-5 6.0703,1.429711 7.52344,4.289062 0.73435,1.453145 1.10154,2.898456 1.10156,4.335938 l 0,8.179687 c -2e-5,1.437507 -0.36721,2.882818 -1.10156,4.335938 -1.45314,2.859376 -3.96095,4.289062 -7.52344,4.289062 z" />
        <path
           inkscape:connector-curvature="0"
           id="path3012"
           d="m 452.86719,52.621117 c -2e-5,1.359382 -0.32815,2.687506 -0.98438,3.984375 -1.29689,2.500002 -3.53907,3.750001 -6.72656,3.75 -3.18751,1e-6 -5.42188,-1.249998 -6.70313,-3.75 -0.67187,-1.296869 -1.00781,-2.624993 -1.00781,-3.984375 l 0,-8.15625 c 0,-1.374982 0.32812,-2.703106 0.98438,-3.984375 1.29687,-2.499977 3.53905,-3.749976 6.72656,-3.75 3.18749,2.4e-5 5.42967,1.250023 6.72656,3.75 0.65623,1.296894 0.98436,2.625018 0.98438,3.984375 z m -7.71094,-16.78125 c -3.75001,2.5e-5 -6.32032,1.570336 -7.71094,4.710937 l 0,-4.265625 c 0,-0.29685 -0.15625,-0.445287 -0.46875,-0.445312 -0.29687,2.5e-5 -0.44531,0.148462 -0.44531,0.445312 l 0,32.695313 c 0,0.296867 0.14844,0.445304 0.44531,0.445312 0.3125,-8e-6 0.46875,-0.148445 0.46875,-0.445312 l 0,-12.445313 c 1.39062,3.140627 3.96093,4.710938 7.71094,4.710938 3.56249,0 6.06248,-1.421874 7.5,-4.265625 0.74998,-1.468745 1.12498,-2.921868 1.125,-4.359375 l 0,-8.15625 c -2e-5,-1.437482 -0.37502,-2.890606 -1.125,-4.359375 -1.43752,-2.843726 -3.93751,-4.2656 -7.5,-4.265625 z" />
        <path
           inkscape:connector-curvature="0"
           id="path3014"
           d="m 474.3125,44.019554 c -0.12502,-1.624981 -0.59377,-3.046855 -1.40625,-4.265625 -1.34377,-1.999976 -3.43751,-2.999975 -6.28125,-3 -2.84376,2.5e-5 -4.93751,1.000024 -6.28125,3 -0.8125,1.21877 -1.28125,2.640644 -1.40625,4.265625 z m -7.6875,17.25 c -3.56251,0 -6.0625,-1.429686 -7.5,-4.289062 C 458.375,55.527372 458,54.082061 458,52.644554 l 0,-8.179687 c 0.0156,-1.515607 0.40625,-2.992168 1.17187,-4.429688 1.45313,-2.796851 3.9375,-4.195287 7.45313,-4.195312 3.56249,2.5e-5 6.06248,1.429711 7.5,4.289062 0.74998,1.46877 1.12498,2.914081 1.125,4.335938 -2e-5,0.312516 -0.14846,0.468766 -0.44531,0.46875 l -15.89063,0 0,7.710937 c 0,1.359382 0.33594,2.687506 1.00781,3.984375 1.28125,2.484377 3.51562,3.726564 6.70313,3.726563 3.18749,1e-6 5.42967,-1.242186 6.72656,-3.726563 0.65623,-1.296869 0.98436,-2.624993 0.98438,-3.984375 -2e-5,-0.296866 0.15623,-0.445303 0.46875,-0.445312 0.29685,9e-6 0.44529,0.148446 0.44531,0.445312 -2e-5,1.437507 -0.37502,2.882818 -1.125,4.335938 -1.43752,2.859376 -3.93751,4.289062 -7.5,4.289062 z" />
        <path
           inkscape:connector-curvature="0"
           id="path3016"
           d="m 495.82812,52.644554 c -1e-5,1.359382 -0.33595,2.687506 -1.00781,3.984375 -1.28126,2.484377 -3.52345,3.726564 -6.72656,3.726563 -3.18751,1e-6 -5.42188,-1.242186 -6.70313,-3.726563 -0.67187,-1.296869 -1.00781,-2.624993 -1.00781,-3.984375 l 0,-8.179687 c 0,-1.359357 0.32812,-2.687481 0.98438,-3.984375 1.29687,-2.484352 3.53905,-3.726538 6.72656,-3.726563 3.18749,2.5e-5 5.42967,1.242211 6.72656,3.726563 0.67186,1.296894 1.0078,2.625018 1.00781,3.984375 z m 0.44532,-24.984375 c -0.2969,3.4e-5 -0.44533,0.148471 -0.44532,0.445313 l 0,12.46875 c -1.40626,-3.156227 -3.98438,-4.73435 -7.73437,-4.734375 -3.54688,2.5e-5 -6.04688,1.429711 -7.5,4.289062 -0.75,1.453145 -1.125,2.898456 -1.125,4.335938 l 0,8.179687 c 0,1.437507 0.375,2.882818 1.125,4.335938 1.45312,2.859376 3.95312,4.289062 7.5,4.289062 3.74999,0 6.32811,-1.578123 7.73437,-4.734375 l 0,4.289063 c -1e-5,0.296875 0.14842,0.445312 0.44532,0.445312 0.29685,0 0.44529,-0.148437 0.44531,-0.445312 l 0,-32.71875 c -2e-5,-0.296842 -0.14846,-0.445279 -0.44531,-0.445313 z" />
        <path
           inkscape:connector-curvature="0"
           id="path3018"
           d="m 509.5625,36.753929 c -3.18751,2.5e-5 -5.42969,1.242211 -6.72656,3.726563 -0.65626,1.296894 -0.98438,2.625018 -0.98438,3.984375 l 0,8.179687 c 0,1.359382 0.33594,2.687506 1.00781,3.984375 1.28125,2.484377 3.51562,3.726564 6.70313,3.726563 3.20311,1e-6 5.4453,-1.242186 6.72656,-3.726563 0.67186,-1.296869 1.0078,-2.624993 1.00781,-3.984375 l 0,-8.179687 c -0.0156,-1.359357 -0.35158,-2.687481 -1.00781,-3.984375 -1.29689,-2.484352 -3.53907,-3.726538 -6.72656,-3.726563 z m 0,24.515625 c -3.56251,0 -6.0625,-1.429686 -7.5,-4.289062 -0.75,-1.45312 -1.125,-2.898431 -1.125,-4.335938 l 0,-8.179687 c 0,-1.437482 0.375,-2.882793 1.125,-4.335938 1.4375,-2.859351 3.93749,-4.289037 7.5,-4.289062 3.56249,2.5e-5 6.0703,1.429711 7.52344,4.289062 0.73435,1.453145 1.10154,2.898456 1.10156,4.335938 l 0,8.179687 c -2e-5,1.437507 -0.36721,2.882818 -1.10156,4.335938 -1.45314,2.859376 -3.96095,4.289062 -7.52344,4.289062 z" />
        <path
           inkscape:connector-curvature="0"
           id="path3020"
           d="m 538.74219,52.574242 c -2e-5,1.359382 -0.33596,2.687506 -1.00782,3.984375 -1.28126,2.484377 -3.51563,3.726563 -6.70312,3.726562 l 0,0.46875 0,-0.46875 c -3.18751,10e-7 -5.42188,-1.242185 -6.70313,-3.726562 -0.67187,-1.296869 -1.00781,-2.624993 -1.00781,-3.984375 l 0,-8.15625 c 0,-1.359357 0.32812,-2.687481 0.98438,-3.984375 1.29687,-2.484352 3.53905,-3.726538 6.72656,-3.726563 3.17186,2.5e-5 5.40623,1.242211 6.70312,3.726563 0.67186,1.296894 1.0078,2.625018 1.00782,3.984375 z m 0.46875,-16.734375 c -0.31252,2.5e-5 -0.46877,0.148462 -0.46875,0.445312 l 0,4.289063 c -1.39064,-3.156227 -3.96095,-4.73435 -7.71094,-4.734375 -3.56251,2.5e-5 -6.0625,1.429711 -7.5,4.289062 -0.75,1.453145 -1.125,2.898456 -1.125,4.335938 l 0,8.179687 c 0,1.421882 0.375,2.867193 1.125,4.335938 1.4375,2.843751 3.93749,4.273437 7.5,4.289062 l 0.0234,0 c 3.73436,0 6.29686,-1.578123 7.6875,-4.734375 l 0,4.265625 c -2e-5,1.359374 -0.33596,2.687498 -1.00782,3.984375 -1.28126,2.484369 -3.51563,3.726555 -6.70312,3.726563 -3.18751,-8e-6 -5.42188,-1.242194 -6.70313,-3.726563 -0.67187,-1.296877 -1.00781,-2.625001 -1.00781,-3.984375 0,-0.296874 -0.15625,-0.445311 -0.46875,-0.445312 -0.29687,1e-6 -0.44531,0.148438 -0.44531,0.445312 0,1.437499 0.375,2.890623 1.125,4.359375 1.4375,2.843743 3.93749,4.265617 7.5,4.265625 3.56249,-8e-6 6.06248,-1.421882 7.5,-4.265625 0.74998,-1.468752 1.12498,-2.921876 1.125,-4.359375 l 0,-24.515625 c -2e-5,-0.29685 -0.14846,-0.445287 -0.44531,-0.445312 z" />
      </g>
    </g>
  </g>
</svg>
